<svg width="194" height="47" viewBox="0 0 194 47" fill="none" xmlns="http://www.w3.org/2000/svg">
<path d="M31.8333 23.5C31.8333 31.7701 25.0572 38.5 16.6667 38.5C8.2761 38.5 1.5 31.7701 1.5 23.5C1.5 15.2299 8.2761 8.5 16.6667 8.5C25.0572 8.5 31.8333 15.2299 31.8333 23.5Z" stroke="black" stroke-width="3"/>
<path d="M48.5 23.5C48.5 31.7701 41.7239 38.5 33.3333 38.5C24.9428 38.5 18.1667 31.7701 18.1667 23.5C18.1667 15.2299 24.9428 8.5 33.3333 8.5C41.7239 8.5 48.5 15.2299 48.5 23.5Z" stroke="black" stroke-width="3"/>
<line y1="-0.75" x2="14.0943" y2="-0.75" transform="matrix(0.743294 0.668965 -0.676368 0.736564 21.4286 12.6571)" stroke="black" stroke-width="1.5"/>
<line y1="-0.75" x2="16.772" y2="-0.75" transform="matrix(0.73819 0.674592 -0.681954 0.731395 19.5238 15.4857)" stroke="black" stroke-width="1.5"/>
<line y1="-0.75" x2="17.4416" y2="-0.75" transform="matrix(0.737154 0.675725 -0.683077 0.730346 18.0952 18.7857)" stroke="black" stroke-width="1.5"/>
<line y1="-0.75" x2="17.7635" y2="-0.75" transform="matrix(0.723794 0.690017 -0.697251 0.716827 16.6667 21.6143)" stroke="black" stroke-width="1.5"/>
<line y1="-0.75" x2="13.425" y2="-0.75" transform="matrix(0.744879 0.667199 -0.674615 0.73817 17.1429 26.8)" stroke="black" stroke-width="1.5"/>
<path d="M62.5586 9.40625V35H57.2852V9.40625H62.5586ZM77.8867 9.40625L67.7441 22.0449L61.8906 28.3379L60.9414 23.3457L64.8965 17.9316L71.418 9.40625H77.8867ZM71.8926 35L64.3516 23.1699L68.2539 19.9004L78.1328 35H71.8926ZM78.5547 25.6836V25.3145C78.5547 23.9199 78.7539 22.6367 79.1523 21.4648C79.5508 20.2812 80.1309 19.2559 80.8926 18.3887C81.6543 17.5215 82.5918 16.8477 83.7051 16.3672C84.8184 15.875 86.0957 15.6289 87.5371 15.6289C88.9785 15.6289 90.2617 15.875 91.3867 16.3672C92.5117 16.8477 93.4551 17.5215 94.2168 18.3887C94.9902 19.2559 95.5762 20.2812 95.9746 21.4648C96.373 22.6367 96.5723 23.9199 96.5723 25.3145V25.6836C96.5723 27.0664 96.373 28.3496 95.9746 29.5332C95.5762 30.7051 94.9902 31.7305 94.2168 32.6094C93.4551 33.4766 92.5176 34.1504 91.4043 34.6309C90.291 35.1113 89.0137 35.3516 87.5723 35.3516C86.1309 35.3516 84.8477 35.1113 83.7227 34.6309C82.6094 34.1504 81.666 33.4766 80.8926 32.6094C80.1309 31.7305 79.5508 30.7051 79.1523 29.5332C78.7539 28.3496 78.5547 27.0664 78.5547 25.6836ZM83.6172 25.3145V25.6836C83.6172 26.4805 83.6875 27.2246 83.8281 27.916C83.9688 28.6074 84.1914 29.2168 84.4961 29.7441C84.8125 30.2598 85.2227 30.6641 85.7266 30.957C86.2305 31.25 86.8457 31.3965 87.5723 31.3965C88.2754 31.3965 88.8789 31.25 89.3828 30.957C89.8867 30.6641 90.291 30.2598 90.5957 29.7441C90.9004 29.2168 91.123 28.6074 91.2637 27.916C91.416 27.2246 91.4922 26.4805 91.4922 25.6836V25.3145C91.4922 24.541 91.416 23.8145 91.2637 23.1348C91.123 22.4434 90.8945 21.834 90.5781 21.3066C90.2734 20.7676 89.8691 20.3457 89.3652 20.041C88.8613 19.7363 88.252 19.584 87.5371 19.584C86.8223 19.584 86.2129 19.7363 85.709 20.041C85.2168 20.3457 84.8125 20.7676 84.4961 21.3066C84.1914 21.834 83.9688 22.4434 83.8281 23.1348C83.6875 23.8145 83.6172 24.541 83.6172 25.3145ZM105.027 8V35H99.9473V8H105.027ZM119.477 30.7109V22.2383C119.477 21.6289 119.377 21.1074 119.178 20.6738C118.979 20.2285 118.668 19.8828 118.246 19.6367C117.836 19.3906 117.303 19.2676 116.646 19.2676C116.084 19.2676 115.598 19.3672 115.188 19.5664C114.777 19.7539 114.461 20.0293 114.238 20.3926C114.016 20.7441 113.904 21.1602 113.904 21.6406H108.842C108.842 20.832 109.029 20.0645 109.404 19.3379C109.779 18.6113 110.324 17.9727 111.039 17.4219C111.754 16.8594 112.604 16.4199 113.588 16.1035C114.584 15.7871 115.697 15.6289 116.928 15.6289C118.404 15.6289 119.717 15.875 120.865 16.3672C122.014 16.8594 122.916 17.5977 123.572 18.582C124.24 19.5664 124.574 20.7969 124.574 22.2734V30.4121C124.574 31.4551 124.639 32.3105 124.768 32.9785C124.896 33.6348 125.084 34.209 125.33 34.7012V35H120.215C119.969 34.4844 119.781 33.8398 119.652 33.0664C119.535 32.2812 119.477 31.4961 119.477 30.7109ZM120.145 23.416L120.18 26.2812H117.35C116.682 26.2812 116.102 26.3574 115.609 26.5098C115.117 26.6621 114.713 26.8789 114.396 27.1602C114.08 27.4297 113.846 27.7461 113.693 28.1094C113.553 28.4727 113.482 28.8711 113.482 29.3047C113.482 29.7383 113.582 30.1309 113.781 30.4824C113.98 30.8223 114.268 31.0918 114.643 31.291C115.018 31.4785 115.457 31.5723 115.961 31.5723C116.723 31.5723 117.385 31.4199 117.947 31.1152C118.51 30.8105 118.943 30.4355 119.248 29.9902C119.564 29.5449 119.729 29.123 119.74 28.7246L121.076 30.8691C120.889 31.3496 120.631 31.8477 120.303 32.3633C119.986 32.8789 119.582 33.3652 119.09 33.8223C118.598 34.2676 118.006 34.6367 117.314 34.9297C116.623 35.2109 115.803 35.3516 114.854 35.3516C113.646 35.3516 112.551 35.1113 111.566 34.6309C110.594 34.1387 109.82 33.4648 109.246 32.6094C108.684 31.7422 108.402 30.7578 108.402 29.6562C108.402 28.6602 108.59 27.7754 108.965 27.002C109.34 26.2285 109.891 25.5781 110.617 25.0508C111.355 24.5117 112.275 24.1074 113.377 23.8379C114.479 23.5566 115.756 23.416 117.209 23.416H120.145ZM128.477 8H133.539V30.6406L133.029 35H128.477V8ZM145.58 25.2969V25.666C145.58 27.084 145.428 28.3848 145.123 29.5684C144.83 30.752 144.373 31.7773 143.752 32.6445C143.131 33.5 142.357 34.168 141.432 34.6484C140.518 35.1172 139.439 35.3516 138.197 35.3516C137.037 35.3516 136.029 35.1172 135.174 34.6484C134.33 34.1797 133.621 33.5176 133.047 32.6621C132.473 31.8066 132.01 30.8047 131.658 29.6562C131.307 28.5078 131.043 27.2539 130.867 25.8945V25.0859C131.043 23.7266 131.307 22.4727 131.658 21.3242C132.01 20.1758 132.473 19.1738 133.047 18.3184C133.621 17.4629 134.33 16.8008 135.174 16.332C136.018 15.8633 137.014 15.6289 138.162 15.6289C139.416 15.6289 140.506 15.8691 141.432 16.3496C142.369 16.8184 143.143 17.4863 143.752 18.3535C144.373 19.209 144.83 20.2285 145.123 21.4121C145.428 22.584 145.58 23.8789 145.58 25.2969ZM140.518 25.666V25.2969C140.518 24.5234 140.459 23.7969 140.342 23.1172C140.236 22.4258 140.049 21.8223 139.779 21.3066C139.51 20.7793 139.141 20.3633 138.672 20.0586C138.215 19.7539 137.623 19.6016 136.896 19.6016C136.205 19.6016 135.619 19.7188 135.139 19.9531C134.658 20.1875 134.26 20.5156 133.943 20.9375C133.639 21.3594 133.41 21.8633 133.258 22.4492C133.105 23.0234 133.012 23.6562 132.977 24.3477V26.6504C133.012 27.5762 133.164 28.3965 133.434 29.1113C133.715 29.8145 134.137 30.3711 134.699 30.7812C135.273 31.1797 136.018 31.3789 136.932 31.3789C137.646 31.3789 138.238 31.2383 138.707 30.957C139.176 30.6758 139.539 30.2773 139.797 29.7617C140.066 29.2461 140.254 28.6426 140.359 27.9512C140.465 27.248 140.518 26.4863 140.518 25.666ZM159.01 29.7441C159.01 29.3809 158.904 29.0527 158.693 28.7598C158.482 28.4668 158.09 28.1973 157.516 27.9512C156.953 27.6934 156.139 27.459 155.072 27.248C154.111 27.0371 153.215 26.7734 152.383 26.457C151.562 26.1289 150.848 25.7363 150.238 25.2793C149.641 24.8223 149.172 24.2832 148.832 23.6621C148.492 23.0293 148.322 22.3086 148.322 21.5C148.322 20.7031 148.492 19.9531 148.832 19.25C149.184 18.5469 149.682 17.9258 150.326 17.3867C150.982 16.8359 151.779 16.4082 152.717 16.1035C153.666 15.7871 154.732 15.6289 155.916 15.6289C157.568 15.6289 158.986 15.8926 160.17 16.4199C161.365 16.9473 162.279 17.6738 162.912 18.5996C163.557 19.5137 163.879 20.5566 163.879 21.7285H158.816C158.816 21.2363 158.711 20.7969 158.5 20.4102C158.301 20.0117 157.984 19.7012 157.551 19.4785C157.129 19.2441 156.578 19.127 155.898 19.127C155.336 19.127 154.85 19.2266 154.439 19.4258C154.029 19.6133 153.713 19.8711 153.49 20.1992C153.279 20.5156 153.174 20.8672 153.174 21.2539C153.174 21.5469 153.232 21.8105 153.35 22.0449C153.479 22.2676 153.684 22.4727 153.965 22.6602C154.246 22.8477 154.609 23.0234 155.055 23.1875C155.512 23.3398 156.074 23.4805 156.742 23.6094C158.113 23.8906 159.338 24.2598 160.416 24.7168C161.494 25.1621 162.35 25.7715 162.982 26.5449C163.615 27.3066 163.932 28.3086 163.932 29.5508C163.932 30.3945 163.744 31.168 163.369 31.8711C162.994 32.5742 162.455 33.1895 161.752 33.7168C161.049 34.2324 160.205 34.6367 159.221 34.9297C158.248 35.2109 157.152 35.3516 155.934 35.3516C154.164 35.3516 152.664 35.0352 151.434 34.4023C150.215 33.7695 149.289 32.9668 148.656 31.9941C148.035 31.0098 147.725 30.002 147.725 28.9707H152.523C152.547 29.6621 152.723 30.2188 153.051 30.6406C153.391 31.0625 153.818 31.3672 154.334 31.5547C154.861 31.7422 155.43 31.8359 156.039 31.8359C156.695 31.8359 157.24 31.748 157.674 31.5723C158.107 31.3848 158.436 31.1387 158.658 30.834C158.893 30.5176 159.01 30.1543 159.01 29.7441Z" fill="black"/>
</svg>
